<?xml version="1.0" standalone="no"?>
<svg xmlns:xlink="http://www.w3.org/1999/xlink" id="wave" style="transform:rotate(180deg); transition: 0.3s" viewBox="0 0 1440 260" version="1.1" xmlns="http://www.w3.org/2000/svg"><defs><linearGradient id="sw-gradient-0" x1="0" x2="0" y1="1" y2="0"><stop stop-color="rgba(34, 40, 49, 1)" offset="0%"/><stop stop-color="rgba(34, 40, 49, 1)" offset="100%"/></linearGradient></defs><path style="transform:translate(0, 0px); opacity:1" fill="url(#sw-gradient-0)" d="M0,182L80,156C160,130,320,78,480,65C640,52,800,78,960,108.3C1120,139,1280,173,1440,173.3C1600,173,1760,139,1920,130C2080,121,2240,139,2400,156C2560,173,2720,191,2880,177.7C3040,165,3200,121,3360,125.7C3520,130,3680,182,3840,173.3C4000,165,4160,95,4320,78C4480,61,4640,95,4800,117C4960,139,5120,147,5280,125.7C5440,104,5600,52,5760,60.7C5920,69,6080,139,6240,169C6400,199,6560,191,6720,164.7C6880,139,7040,95,7200,82.3C7360,69,7520,87,7680,108.3C7840,130,8000,156,8160,177.7C8320,199,8480,217,8640,212.3C8800,208,8960,182,9120,156C9280,130,9440,104,9600,99.7C9760,95,9920,113,10080,138.7C10240,165,10400,199,10560,182C10720,165,10880,95,11040,65C11200,35,11360,43,11440,47.7L11520,52L11520,260L11440,260C11360,260,11200,260,11040,260C10880,260,10720,260,10560,260C10400,260,10240,260,10080,260C9920,260,9760,260,9600,260C9440,260,9280,260,9120,260C8960,260,8800,260,8640,260C8480,260,8320,260,8160,260C8000,260,7840,260,7680,260C7520,260,7360,260,7200,260C7040,260,6880,260,6720,260C6560,260,6400,260,6240,260C6080,260,5920,260,5760,260C5600,260,5440,260,5280,260C5120,260,4960,260,4800,260C4640,260,4480,260,4320,260C4160,260,4000,260,3840,260C3680,260,3520,260,3360,260C3200,260,3040,260,2880,260C2720,260,2560,260,2400,260C2240,260,2080,260,1920,260C1760,260,1600,260,1440,260C1280,260,1120,260,960,260C800,260,640,260,480,260C320,260,160,260,80,260L0,260Z"/></svg>